<svg xmlns="http://www.w3.org/2000/svg" xmlns:xlink="http://www.w3.org/1999/xlink" viewBox="0,0,256,256" width="24px" height="24px" fill-rule="nonzero"><g fill="#004d40" fill-rule="nonzero" stroke="none" stroke-width="1" stroke-linecap="butt" stroke-linejoin="miter" stroke-miterlimit="10" stroke-dasharray="" stroke-dashoffset="0" font-family="none" font-weight="none" font-size="none" text-anchor="none" style="mix-blend-mode: normal"><g transform="scale(10.66667,10.66667)"><path d="M12,2c-5.50804,0 -10,4.49196 -10,10c0,5.50804 4.49196,10 10,10c5.50804,0 10,-4.49196 10,-10c0,-5.50804 -4.49196,-10 -10,-10zM15.75,9c0.31987,0 0.64027,0.12123 0.88477,0.36523c0.489,0.488 0.488,1.28153 0,1.76953l-4.75,4.75c-0.244,0.244 -0.56477,0.36523 -0.88477,0.36523c-0.32,0 -0.64077,-0.12123 -0.88477,-0.36523l-2.75977,-2.76172c-0.488,-0.488 -0.488,-1.27858 0,-1.76758c0.488,-0.489 1.27858,-0.488 1.76758,0l1.87695,1.87695l3.86523,-3.86719c0.244,-0.244 0.56489,-0.36523 0.88477,-0.36523z"></path></g></g></svg>