<svg xmlns="http://www.w3.org/2000/svg"  viewBox="0 0 24 24" width="20px" height="24px"><path d="M 2.6699219 1.5605469 C 2.4166719 1.5605469 2.1642031 1.6580625 1.9707031 1.8515625 L 1.9550781 1.8652344 C 1.5680781 2.2522344 1.5680781 2.879625 1.9550781 3.265625 L 2.9785156 4.2890625 C 2.3945091 4.6381888 2 5.2697837 2 6 L 2 18 C 2 19.105 2.895 20 4 20 L 18.691406 20 L 20.082031 21.390625 C 20.469031 21.777625 21.095422 21.777625 21.482422 21.390625 L 21.496094 21.376953 C 21.883094 20.989953 21.883094 20.363563 21.496094 19.976562 L 3.3691406 1.8515625 C 3.1756406 1.6580625 2.9231719 1.5605469 2.6699219 1.5605469 z M 8.3378906 4 L 22 17.662109 L 22 6 C 22 4.895 21.105 4 20 4 L 8.3378906 4 z M 18 8 C 18.552 8 19 8.448 19 9 C 19 9.552 18.552 10 18 10 C 17.448 10 17 9.552 17 9 C 17 8.448 17.448 8 18 8 z M 8.5039062 12.798828 C 8.6486563 12.796578 8.7944844 12.855516 8.8964844 12.978516 L 11 15.509766 L 12.398438 13.707031 L 15.691406 17 L 6.0214844 17 C 5.6054844 17 5.3729063 16.521359 5.6289062 16.193359 L 8.1171875 12.990234 C 8.2151875 12.864234 8.3591562 12.801078 8.5039062 12.798828 z"/></svg>