<?xml version="1.0"?><svg xmlns="http://www.w3.org/2000/svg"  viewBox="0 0 30 30" width="30px" height="30px">    <path d="M 3.7070312 2.2929688 L 2.2929688 3.7070312 L 26.292969 27.707031 L 27.707031 26.292969 L 26.375 24.960938 C 27.299776 24.784872 28 23.976233 28 23 L 28 7 C 28 5.895 27.105 5 26 5 L 6.4140625 5 L 3.7070312 2.2929688 z M 2.1367188 6.2851562 C 2.0517188 6.5071563 2 6.747 2 7 L 2 23 C 2 24.105 2.895 25 4 25 L 20.851562 25 L 17.851562 22 L 5 22 L 5 15 L 7.2890625 12.710938 C 7.5140625 12.485938 7.7747812 12.317219 8.0507812 12.199219 L 2.1367188 6.2851562 z M 23 8 C 24.105 8 25 8.895 25 10 C 25 11.105 24.105 12 23 12 C 21.895 12 21 11.105 21 10 C 21 8.895 21.895 8 23 8 z M 19 14.001953 C 19.61925 14.001953 20.238437 14.238437 20.710938 14.710938 L 25 19 L 25 22 L 23.414062 22 L 16.707031 15.292969 L 17.289062 14.710938 C 17.761563 14.238437 18.38075 14.001953 19 14.001953 z"/></svg>