<svg xmlns="http://www.w3.org/2000/svg"  viewBox="0 0 24 24" width="24px" height="24px"><path d="M 17.984375 1.25 A 0.74945981 0.74945981 0 0 0 17.763672 2.7109375 L 18.923828 3.0976562 L 11.705078 6.3105469 L 4.7050781 9.3105469 A 0.75 0.75 0 0 0 5 10.75 A 0.75 0.75 0 0 0 5.2949219 10.683594 L 12.304688 7.6835938 L 19.751953 4.3730469 L 19.289062 5.7636719 A 0.749 0.749 0 0 0 19.763672 6.7109375 A 0.722 0.722 0 0 0 20 6.75 A 0.749 0.749 0 0 0 20.710938 6.2363281 L 21.669922 3.3613281 A 0.751 0.751 0 0 0 21.099609 2.2441406 L 18.236328 1.2890625 A 0.74945981 0.74945981 0 0 0 17.984375 1.25 z M 18 9.25 A 1.752 1.752 0 0 0 16.25 11 L 16.25 21 A 1.752 1.752 0 0 0 18 22.75 L 20 22.75 A 1.752 1.752 0 0 0 21.75 21 L 21.75 11 A 1.752 1.752 0 0 0 20 9.25 L 18 9.25 z M 18 10.75 L 20 10.75 A 0.25 0.25 0 0 1 20.25 11 L 20.25 21 A 0.25 0.25 0 0 1 20 21.25 L 18 21.25 A 0.25 0.25 0 0 1 17.75 21 L 17.75 11 A 0.25 0.25 0 0 1 18 10.75 z M 11 11.25 A 1.752 1.752 0 0 0 9.25 13 L 9.25 21 A 1.752 1.752 0 0 0 11 22.75 L 13 22.75 A 1.752 1.752 0 0 0 14.75 21 L 14.75 13 A 1.752 1.752 0 0 0 13 11.25 L 11 11.25 z M 11 12.75 L 13 12.75 A 0.25 0.25 0 0 1 13.25 13 L 13.25 21 A 0.25 0.25 0 0 1 13 21.25 L 11 21.25 A 0.25 0.25 0 0 1 10.75 21 L 10.75 13 A 0.25 0.25 0 0 1 11 12.75 z M 4 15.25 A 1.752 1.752 0 0 0 2.25 17 L 2.25 21 A 1.752 1.752 0 0 0 4 22.75 L 6 22.75 A 1.752 1.752 0 0 0 7.75 21 L 7.75 17 A 1.752 1.752 0 0 0 6 15.25 L 4 15.25 z M 4 16.75 L 6 16.75 A 0.25 0.25 0 0 1 6.25 17 L 6.25 21 A 0.25 0.25 0 0 1 6 21.25 L 4 21.25 A 0.25 0.25 0 0 1 3.75 21 L 3.75 17 A 0.25 0.25 0 0 1 4 16.75 z"/></svg>